<svg xmlns="http://www.w3.org/2000/svg" width="374.898" height="440.41" viewBox="0 0 374.898 440.41">
  <g id="Group_288" data-name="Group 288" transform="translate(-2905 -1803.926)">
    <path id="Path_39" data-name="Path 39" d="M349.726,144.849h-8.52V161.89h8.52a17.041,17.041,0,1,1,0,34.082h-8.52v17.041h8.52a34.082,34.082,0,0,0,0-68.164Z" transform="translate(2836.448 1826.001)"/>
    <path id="Path_40" data-name="Path 40" d="M162.276,161.89h8.52V144.849h-8.52a34.082,34.082,0,0,0,0,68.164h8.52V195.972h-8.52a17.041,17.041,0,1,1,0-34.082Z" transform="translate(2836.448 1826.001)"/>
    <path id="Path_41" data-name="Path 41" d="M250.25,213.012,264.2,164.233l-16.385-4.686L230.772,219.19a8.521,8.521,0,0,0,8.188,10.863h25.553V213.012H250.25Z" transform="translate(2836.448 1826.001)"/>
    <path id="Path_42" data-name="Path 42" d="M356.806,148.641,322.724,97.519a8.531,8.531,0,0,0-7.089-3.792H162.268a8.523,8.523,0,0,0-8.52,8.52v99.7a150.327,150.327,0,0,0,18.881,72.8,95.385,95.385,0,0,0,83.338,49.035h.051a95.381,95.381,0,0,0,83.338-49.035,150.464,150.464,0,0,0,18.881-72.807V153.369A8.541,8.541,0,0,0,356.806,148.641ZM341.2,201.927a133.35,133.35,0,0,1-16.734,64.542,78.351,78.351,0,0,1-68.453,40.267h-.034a78.33,78.33,0,0,1-68.444-40.267A133.3,133.3,0,0,1,170.8,201.935V110.767h140.28l30.12,45.175v45.985Z" transform="translate(2836.448 1826.001)"/>
    <path id="Path_43" data-name="Path 43" d="M284.059,232.541a49.421,49.421,0,0,1-35.13,14.553H238.96v17.041h9.969A66.377,66.377,0,0,0,296.107,244.6Z" transform="translate(2836.448 1826.001)"/>
    <circle id="Ellipse_13" data-name="Ellipse 13" cx="17.041" cy="17.041" r="17.041" transform="translate(3024.32 1979.37)"/>
    <circle id="Ellipse_14" data-name="Ellipse 14" cx="17.041" cy="17.041" r="17.041" transform="translate(3126.565 1979.37)"/>
    <path id="Path_45" data-name="Path 45" d="M196.358,298.216V333.6l-61.279,8.193C97.146,346.9,68.552,379.8,68.552,418.326l17.041-.009c0-29.968,22.247-55.551,51.736-59.523L206,349.614a8.557,8.557,0,0,0,7.4-8.5v-42.9H196.358Z" transform="translate(2836.448 1826)"/>
    <path id="Path_46" data-name="Path 46" d="M376.914,341.8l-61.27-8.193V298.225H298.6v42.9a8.558,8.558,0,0,0,7.4,8.5l68.666,9.18c29.506,3.963,51.744,29.556,51.744,59.523l17.041.008C443.45,379.814,414.847,346.9,376.914,341.8Z" transform="translate(2836.448 1826.001)"/>
    <path id="Path_48" data-name="Path 48" d="M311.418,333.423,256,365.093l-55.417-31.67-8.452,14.791L251.775,382.3a8.5,8.5,0,0,0,8.452,0l59.643-34.082Z" transform="translate(2836.448 1826.001)"/>
    <path id="Path_82" data-name="Path 82" d="M2997.792,1929.673l-26.1-58.415,33.776,19.409,9.838-37.528,19.341,33.87,27.327-59.744,14.633,64.923,31.572-37.581,4.565,36.06,17.974-16.647,15.263,20.37,33.065-30.994v51.712l28.167-9.66-9.824,31.978h18.673l-32.322,39.628-31.669-47.38Z" fill="none" stroke="#000" stroke-width="15"/>
  </g>
</svg>
