<svg xmlns="http://www.w3.org/2000/svg" width="375.468" height="454.828" viewBox="0 0 375.468 454.828">
  <g id="Group_290" data-name="Group 290" transform="translate(-3847 -1789.173)">
    <path id="Subtraction_5" data-name="Subtraction 5" d="M81.067,426H64v-7.867a77.06,77.06,0,0,1,66.628-76.126l49.673-6.579a13.6,13.6,0,0,0,11.708-13.4V296.517a102.056,102.056,0,0,1-24.048-24.261c-3.1-6.763-7.779-17.922-11.605-28.96-2.127-6.137-3.8-11.672-4.973-16.45a59.725,59.725,0,0,1-2.049-13.513V204.8a34.134,34.134,0,0,1,0-68.268V102.4A42.715,42.715,0,0,1,192,59.732h17.068a8.521,8.521,0,0,1,7.057,3.738l2.9,4.267a39.2,39.2,0,0,0,65.374.06l2.944-4.326a8.517,8.517,0,0,1,7.057-3.738h17.067A42.666,42.666,0,0,1,354.133,102.4v34.132a34.134,34.134,0,1,1,0,68.268v8.532a102.586,102.586,0,0,1-42.655,83.12v25.6a13.6,13.6,0,0,0,11.732,13.38l49.621,6.579a77.05,77.05,0,0,1,66.637,76.125V426H422.4v-7.866a59.912,59.912,0,0,0-51.823-59.2l-49.638-6.579a30.526,30.526,0,0,1-6.393-1.588l-56.389,64.444a8.517,8.517,0,0,1-12.843.009l-56.388-64.444a30.4,30.4,0,0,1-6.349,1.578l-49.7,6.579a59.91,59.91,0,0,0-51.815,59.2V426ZM209.075,306.421h0v15.627a30.32,30.32,0,0,1-1.692,9.934,30.758,30.758,0,0,1-4.671,8.634l49.021,56.021L300.761,340.6a30.737,30.737,0,0,1-4.663-8.624,30.272,30.272,0,0,1-1.689-9.914V306.41a101.8,101.8,0,0,1-42.677,9.321h-.026a102.324,102.324,0,0,1-42.631-9.311ZM192,76.8a25.629,25.629,0,0,0-25.6,25.6V213.332a49.8,49.8,0,0,0,1.707,11.266c.977,3.984,2.372,8.6,4.144,13.711,3.191,9.207,7.088,18.5,9.672,24.132a85.394,85.394,0,0,0,69.786,36.224h.016a85.43,85.43,0,0,0,85.334-85.333V102.4a25.629,25.629,0,0,0-25.6-25.6H298.906l-.358.529a56.264,56.264,0,0,1-93.7-.068l-.3-.462Zm162.134,76.8h0v34.133a17.067,17.067,0,1,0,0-34.133Zm-204.8,0a17.066,17.066,0,1,0,0,34.133Zm110.934,76.8H226.134a8.535,8.535,0,0,1-7.995-11.528l25.6-68.267,15.983,5.99-21.274,56.739h21.82V230.4Zm36.948-26.038a31.783,31.783,0,1,1,12.41-2.505A31.682,31.682,0,0,1,297.215,204.362Zm-96.681-16.628a17.067,17.067,0,1,1,12.068-5A16.957,16.957,0,0,1,200.534,187.734Z" transform="translate(3783 1818)"/>
    <path id="Path_83" data-name="Path 83" d="M3989.576,1885.357l14.985-88.684h55.507l16.916,88.684" fill="none" stroke="#000" stroke-width="15"/>
    <path id="Path_84" data-name="Path 84" d="M251.008,264.135a49.421,49.421,0,0,1,35.13-14.553h9.969V232.541h-9.969a66.377,66.377,0,0,0-47.178,19.537Z" transform="translate(3780.448 1830.001)"/>
    <path id="Path_86" data-name="Path 86" d="M349.867,202.31,168.766,93.543" transform="translate(3778.734 1818)" fill="none" stroke="#000" stroke-width="15"/>
  </g>
</svg>
