<svg xmlns="http://www.w3.org/2000/svg" width="375.468" height="407.229" viewBox="0 0 375.468 407.229">
  <g id="Group_292" data-name="Group 292" transform="translate(-3374 -1836.772)">
    <g id="Group_284" data-name="Group 284">
      <path id="Subtraction_5" data-name="Subtraction 5" d="M81.067,426H64v-7.867a77.06,77.06,0,0,1,66.628-76.126l49.673-6.579a13.6,13.6,0,0,0,11.708-13.4V296.517a102.057,102.057,0,0,1-24.048-24.261c-3.1-6.764-7.78-17.923-11.605-28.96-2.127-6.137-3.8-11.672-4.973-16.45a59.723,59.723,0,0,1-2.049-13.513V204.8a34.106,34.106,0,0,1-26.087-56.125L120.1,114.27a77.19,77.19,0,0,1,1.883-25.261,76.521,76.521,0,0,1,47.73-53.553c2.137-2.684,5.976-5.14,11.408-7.3a105.98,105.98,0,0,1,19.206-5.214c14.341-2.69,32.6-4.171,51.407-4.171s37.066,1.481,51.406,4.171a105.952,105.952,0,0,1,19.2,5.214c5.432,2.159,9.269,4.615,11.406,7.3a76.544,76.544,0,0,1,49.613,78.8l-3.146,34.412a34.119,34.119,0,0,1-26.08,56.135v8.532a102.586,102.586,0,0,1-42.656,83.12v25.6a13.6,13.6,0,0,0,11.732,13.38l49.621,6.579a77.05,77.05,0,0,1,66.637,76.125V426H422.4v-7.866a59.912,59.912,0,0,0-51.823-59.2l-49.638-6.579a30.53,30.53,0,0,1-6.393-1.588l-56.389,64.444a8.516,8.516,0,0,1-12.843.009l-56.388-64.444a30.4,30.4,0,0,1-6.349,1.578l-49.7,6.579a59.91,59.91,0,0,0-51.815,59.2V426Zm128.009-119.58v15.627a30.32,30.32,0,0,1-1.692,9.935,30.758,30.758,0,0,1-4.671,8.634l49.021,56.021L300.761,340.6a30.74,30.74,0,0,1-4.663-8.624,30.272,30.272,0,0,1-1.689-9.914V306.41a101.8,101.8,0,0,1-42.677,9.321h-.026a102.326,102.326,0,0,1-42.631-9.31Zm2.77-229.761c-4.871,0-11.53.016-19.846.14a25.629,25.629,0,0,0-25.6,25.6V213.332a49.8,49.8,0,0,0,1.707,11.266c.977,3.983,2.371,8.6,4.144,13.711,3.191,9.207,7.088,18.5,9.672,24.132a85.394,85.394,0,0,0,69.786,36.224h.016a85.43,85.43,0,0,0,85.334-85.333V102.4a25.63,25.63,0,0,0-25.6-25.6c-12.054-.261-21.377-.612-29.6-.922-10.254-.386-19.106-.719-29.443-.719h-.679a223.223,223.223,0,0,1-30.279,1.51c-1.379,0-2.811,0-4.311,0H216.9C215.307,76.662,213.608,76.66,211.845,76.66ZM354.134,153.6h0v34.133a17.067,17.067,0,1,0,0-34.133Zm-204.8,0a17.066,17.066,0,1,0,0,34.132V153.6Zm102.8-94.688c9.1,0,23.968.378,33.806.628h.022c4.388.112,7.558.192,8.436.192h17.067A42.666,42.666,0,0,1,354.133,102.4v34.132A34.047,34.047,0,0,1,364.049,138l2.313-25.284A59.507,59.507,0,0,0,325.82,50.756a8.513,8.513,0,0,1-4.113-2.97c-3.376-4.5-12.34-8.242-25.925-10.819-12.255-2.326-27.9-3.607-44.048-3.607s-31.793,1.281-44.048,3.607c-13.584,2.578-22.549,6.319-25.925,10.819a8.5,8.5,0,0,1-4.113,2.97,59.521,59.521,0,0,0-40.542,61.978L139.418,138a34.044,34.044,0,0,1,9.915-1.468V102.4A42.715,42.715,0,0,1,192,59.732h17.068c.882,0,4.054-.081,8.445-.192h.014c9.237-.235,24.7-.628,33.8-.628h.805ZM260.267,230.4H226.134a8.535,8.535,0,0,1-7.995-11.528l25.6-68.267,15.983,5.989-21.274,56.739h21.82V230.4ZM294.4,187.734a17.067,17.067,0,1,1,12.068-5A16.955,16.955,0,0,1,294.4,187.734Zm-93.866,0a17.067,17.067,0,1,1,12.068-5A16.956,16.956,0,0,1,200.534,187.734Z" transform="translate(3310 1818)"/>
    </g>
  </g>
</svg>
