<svg xmlns="http://www.w3.org/2000/svg" width="374.898" height="418.336" viewBox="0 0 374.898 418.336">
  <g id="Group_285" data-name="Group 285" transform="translate(-1488 -1826)">
    <g id="young" transform="translate(1419.448 1826.001)">
      <g id="Group_156" data-name="Group 156">
        <g id="Group_155" data-name="Group 155">
          <path id="Path_39" data-name="Path 39" d="M349.726,144.849h-8.52V161.89h8.52a17.041,17.041,0,1,1,0,34.082h-8.52v17.041h8.52a34.082,34.082,0,0,0,0-68.164Z"/>
        </g>
      </g>
      <g id="Group_158" data-name="Group 158">
        <g id="Group_157" data-name="Group 157">
          <path id="Path_40" data-name="Path 40" d="M162.276,161.89h8.52V144.849h-8.52a34.082,34.082,0,0,0,0,68.164h8.52V195.972h-8.52a17.041,17.041,0,1,1,0-34.082Z"/>
        </g>
      </g>
      <g id="Group_160" data-name="Group 160">
        <g id="Group_159" data-name="Group 159">
          <path id="Path_41" data-name="Path 41" d="M250.25,213.012,264.2,164.233l-16.385-4.686L230.772,219.19a8.521,8.521,0,0,0,8.188,10.863h25.553V213.012H250.25Z"/>
        </g>
      </g>
      <g id="Group_162" data-name="Group 162">
        <g id="Group_161" data-name="Group 161">
          <path id="Path_42" data-name="Path 42" d="M356.806,148.641,322.724,97.519a8.531,8.531,0,0,0-7.089-3.792H162.268a8.523,8.523,0,0,0-8.52,8.52v99.7a150.327,150.327,0,0,0,18.881,72.8,95.385,95.385,0,0,0,83.338,49.035h.051a95.381,95.381,0,0,0,83.338-49.035,150.464,150.464,0,0,0,18.881-72.807V153.369A8.541,8.541,0,0,0,356.806,148.641ZM341.2,201.927a133.35,133.35,0,0,1-16.734,64.542,78.351,78.351,0,0,1-68.453,40.267h-.034a78.33,78.33,0,0,1-68.444-40.267A133.3,133.3,0,0,1,170.8,201.935V110.767h140.28l30.12,45.175v45.985Z"/>
        </g>
      </g>
      <g id="Group_164" data-name="Group 164">
        <g id="Group_163" data-name="Group 163">
          <path id="Path_43" data-name="Path 43" d="M284.059,232.541a49.421,49.421,0,0,1-35.13,14.553H238.96v17.041h9.969A66.377,66.377,0,0,0,296.107,244.6Z"/>
        </g>
      </g>
      <g id="Group_166" data-name="Group 166">
        <g id="Group_165" data-name="Group 165">
          <circle id="Ellipse_13" data-name="Ellipse 13" cx="17.041" cy="17.041" r="17.041" transform="translate(187.872 153.369)"/>
        </g>
      </g>
      <g id="Group_168" data-name="Group 168">
        <g id="Group_167" data-name="Group 167">
          <circle id="Ellipse_14" data-name="Ellipse 14" cx="17.041" cy="17.041" r="17.041" transform="translate(290.117 153.369)"/>
        </g>
      </g>
      <g id="Group_170" data-name="Group 170">
        <g id="Group_169" data-name="Group 169">
          <path id="Path_44" data-name="Path 44" d="M360.538,69.818a44.26,44.26,0,0,0-28.927-18.089c-.528-.085-1.039-.162-1.568-.23a45.9,45.9,0,0,0-41.324-25.936H192.4L177.877,3.793a8.52,8.52,0,0,0-13.112-1.3l-8.52,8.52a68.843,68.843,0,0,0,0,97.252L168.284,96.2a51.725,51.725,0,0,1,.008-73.14l1.176-1.167,11.281,16.913a8.531,8.531,0,0,0,7.089,3.792H288.7a28.9,28.9,0,0,1,27.385,19.742,8.506,8.506,0,0,0,8.077,5.819h.017a22.62,22.62,0,0,1,4.6.383,27.523,27.523,0,0,1,22.588,31.7L341.317,160.49l16.811,2.8,10.063-60.239A44.239,44.239,0,0,0,360.538,69.818Z"/>
        </g>
      </g>
      <g id="Group_172" data-name="Group 172" transform="translate(68.552 298.215)">
        <g id="Group_171" data-name="Group 171">
          <path id="Path_45" data-name="Path 45" d="M196.358,298.216V333.6l-61.279,8.193C97.146,346.9,68.552,379.8,68.552,418.326l17.041-.009c0-29.968,22.247-55.551,51.736-59.523L206,349.614a8.557,8.557,0,0,0,7.4-8.5v-42.9H196.358Z" transform="translate(-68.552 -298.215)"/>
        </g>
      </g>
      <g id="Group_174" data-name="Group 174" transform="translate(298.603 298.225)">
        <g id="Group_173" data-name="Group 173" transform="translate(0 0)">
          <path id="Path_46" data-name="Path 46" d="M376.914,341.8l-61.27-8.193V298.225H298.6v42.9a8.558,8.558,0,0,0,7.4,8.5l68.666,9.18c29.506,3.963,51.744,29.556,51.744,59.523l17.041.008C443.45,379.814,414.847,346.9,376.914,341.8Z" transform="translate(-298.603 -298.225)"/>
        </g>
      </g>
      <g id="Group_182" data-name="Group 182">
        <g id="Group_181" data-name="Group 181">
          <path id="Path_48" data-name="Path 48" d="M311.418,333.423,256,365.093l-55.417-31.67-8.452,14.791L251.775,382.3a8.5,8.5,0,0,0,8.452,0l59.643-34.082Z"/>
        </g>
      </g>
    </g>
  </g>
</svg>
