<svg xmlns="http://www.w3.org/2000/svg" width="375.468" height="426.001" viewBox="0 0 375.468 426.001">
  <g id="Group_289" data-name="Group 289" transform="translate(-3374 -1818)">
    <g id="Group_284" data-name="Group 284">
      <path id="Subtraction_5" data-name="Subtraction 5" d="M81.067,426H64v-7.867a77.06,77.06,0,0,1,66.628-76.126l49.673-6.579a13.6,13.6,0,0,0,11.708-13.4V296.517a102.056,102.056,0,0,1-23.471-23.45H166.4a8.543,8.543,0,0,1-8.533-8.533,51.586,51.586,0,0,1,.722-8.6,103.046,103.046,0,0,1-9.256-42.6V204.8a34.106,34.106,0,0,1-26.087-56.125L120.1,114.27a77.19,77.19,0,0,1,1.883-25.26,76.52,76.52,0,0,1,47.73-53.553,93.554,93.554,0,0,1,14.947-14.925,94.783,94.783,0,0,1,37.523-18.12A93.216,93.216,0,0,1,243.2,0h17.068a93.213,93.213,0,0,1,21.019,2.412,94.758,94.758,0,0,1,37.52,18.12,93.485,93.485,0,0,1,14.942,14.925,76.544,76.544,0,0,1,49.613,78.8l-3.146,34.412a34.119,34.119,0,0,1-26.08,56.135v8.532a102.586,102.586,0,0,1-42.655,83.12v25.6a13.6,13.6,0,0,0,11.732,13.38l49.622,6.579a77.05,77.05,0,0,1,66.637,76.125V426H422.4v-7.866a59.912,59.912,0,0,0-51.823-59.2l-49.638-6.579a30.529,30.529,0,0,1-6.393-1.588l-56.389,64.444a8.517,8.517,0,0,1-12.843.009l-56.388-64.444a30.4,30.4,0,0,1-6.349,1.578l-49.7,6.579a59.91,59.91,0,0,0-51.815,59.2V426Zm128.009-119.58v15.627a30.32,30.32,0,0,1-1.692,9.934,30.756,30.756,0,0,1-4.671,8.634l49.021,56.021L300.761,340.6a30.74,30.74,0,0,1-4.663-8.624,30.269,30.269,0,0,1-1.689-9.914V306.41a101.8,101.8,0,0,1-42.677,9.321h-.026a102.326,102.326,0,0,1-42.631-9.31Zm-18.308-33.355a85.386,85.386,0,0,0,60.941,25.6h.016a85.26,85.26,0,0,0,60.884-25.6H285.868A51.19,51.19,0,0,1,243.2,250.144a51.712,51.712,0,0,1-18.1,16.639,50.895,50.895,0,0,1-24.563,6.283ZM252.809,230.4a33.9,33.9,0,0,0,4.534,10.2,34.31,34.31,0,0,0,17.193,13.464A33.971,33.971,0,0,0,285.867,256h24.517a33.859,33.859,0,0,0-4.531-10.2,34.313,34.313,0,0,0-17.192-13.465,33.952,33.952,0,0,0-11.327-1.932Zm-43.742,0a33.966,33.966,0,0,0-21.054,7.286,34.359,34.359,0,0,0-7.465,8.111,33.936,33.936,0,0,0-4.539,10.2h24.525a33.966,33.966,0,0,0,21.053-7.286,34.362,34.362,0,0,0,7.465-8.111,33.942,33.942,0,0,0,4.539-10.2Zm34.672-79.8h0l15.982,5.989-21.274,56.739h38.886a50.963,50.963,0,0,1,32.1,11.337,51.453,51.453,0,0,1,11.216,12.588,50.813,50.813,0,0,1,6.585,15.794,84.818,84.818,0,0,0,9.821-39.72V102.4a25.63,25.63,0,0,0-25.6-25.6H298.906l-.358.529a56.264,56.264,0,0,1-93.7-.068l-.3-.462H192a25.629,25.629,0,0,0-25.6,25.6V213.332a85.608,85.608,0,0,0,2.308,19.725A51.53,51.53,0,0,1,186.263,218.7a50.9,50.9,0,0,1,22.8-5.363h11.148l23.522-62.728h0Zm110.394,3h0v34.133a17.067,17.067,0,1,0,0-34.133Zm-204.8,0a17.066,17.066,0,1,0,0,34.132ZM294.4,59.733h17.067A42.666,42.666,0,0,1,354.133,102.4v34.132A34.046,34.046,0,0,1,364.049,138l2.313-25.284A59.507,59.507,0,0,0,325.82,50.756a8.513,8.513,0,0,1-4.113-2.97,77.177,77.177,0,0,0-61.439-30.721H243.2A77.177,77.177,0,0,0,181.76,47.786a8.5,8.5,0,0,1-4.113,2.97,59.521,59.521,0,0,0-40.542,61.978L139.418,138a34.042,34.042,0,0,1,9.915-1.468V102.4A42.715,42.715,0,0,1,192,59.732h17.068a8.521,8.521,0,0,1,7.057,3.738l2.9,4.267a39.2,39.2,0,0,0,65.374.06l2.944-4.326A8.517,8.517,0,0,1,294.4,59.733Zm0,128a17.068,17.068,0,1,1,12.068-5A16.955,16.955,0,0,1,294.4,187.734Zm-93.866,0a17.067,17.067,0,1,1,12.068-5A16.956,16.956,0,0,1,200.534,187.734ZM320,136.534H183.467V119.467H320v17.066Z" transform="translate(3310 1818)"/>
    </g>
  </g>
</svg>
